<svg width="375" height="29" viewBox="0 0 375 29" fill="none" xmlns="http://www.w3.org/2000/svg">
    <path fill-rule="evenodd" clip-rule="evenodd" d="M-18.0005 28.8218C-15.7137 12.7023 1.0294 0.189751 21.3444 0.189751C34.5592 0.189751 46.2625 5.48428 53.4585 13.6221C59.0362 11.168 65.4154 9.77569 72.1921 9.77569C80.011 9.77569 87.3008 11.6292 93.4409 14.8286C100.497 5.90659 112.766 0.00225067 126.721 0.00225067C141.691 0.00225067 154.72 6.796 161.456 16.8206C168.101 12.6983 176.385 10.2523 185.367 10.2523C193.073 10.2523 200.266 12.0529 206.35 15.168C213.361 6.05663 225.764 0.00225067 239.895 0.00225067C254.865 0.00225067 267.894 6.796 274.63 16.8206C281.275 12.6983 289.559 10.2523 298.541 10.2523C306.402 10.2523 313.728 12.1257 319.888 15.3567C326.94 6.41461 339.223 0.494438 353.197 0.494438C373.384 0.494438 390.044 12.8496 392.497 28.8218H-18.0005Z" fill="white"/>
</svg>